<mxfile host="app.diagrams.net" modified="2023-08-15T19:52:48.207Z" agent="Mozilla/5.0 (Macintosh; Intel Mac OS X 10_15_7) AppleWebKit/537.36 (KHTML, like Gecko) Chrome/115.0.0.0 Safari/537.36" etag="FD8hZ41ucwo7kBWGqKKb" version="21.6.7" type="github">
  <diagram name="Page-1" id="aaaa8250-4180-3840-79b5-4cada1eebb92">
    <mxGraphModel dx="6780" dy="2430" grid="0" gridSize="8" guides="1" tooltips="1" connect="1" arrows="1" fold="1" page="0" pageScale="1" pageWidth="850" pageHeight="1100" background="none" math="0" shadow="0">
      <root>
        <mxCell id="0" />
        <mxCell id="1" parent="0" />
        <mxCell id="1a8abee3a6cfdf20-28" value="" style="verticalLabelPosition=bottom;html=1;verticalAlign=top;strokeWidth=1;dashed=0;shape=mxgraph.aws3d.flatDoubleEdge;fillColor=#000000;aspect=fixed;rounded=1;shadow=0;comic=0;fontFamily=Verdana;fontSize=12;flipV=1;" parent="1" vertex="1">
          <mxGeometry x="-530" y="290" width="512" height="292" as="geometry" />
        </mxCell>
        <mxCell id="1a8abee3a6cfdf20-6" value="" style="verticalLabelPosition=bottom;html=1;verticalAlign=top;strokeWidth=1;dashed=0;shape=mxgraph.aws3d.elasticLoadBalancing;fillColor=#ECECEC;strokeColor=#5E5E5E;aspect=fixed;rounded=1;shadow=0;comic=0;fontSize=12;" parent="1" vertex="1">
          <mxGeometry x="-710" y="738.83" width="92" height="88.17" as="geometry" />
        </mxCell>
        <mxCell id="1a8abee3a6cfdf20-7" value="" style="verticalLabelPosition=bottom;html=1;verticalAlign=top;strokeWidth=1;dashed=0;shape=mxgraph.aws3d.workflowService;fillColor=#ECECEC;strokeColor=#5E5E5E;aspect=fixed;rounded=1;shadow=0;comic=0;fontSize=12" parent="1" vertex="1">
          <mxGeometry x="-970" y="478" width="182.20000000000002" height="148.4" as="geometry" />
        </mxCell>
        <mxCell id="1a8abee3a6cfdf20-12" value="" style="verticalLabelPosition=bottom;html=1;verticalAlign=top;strokeWidth=1;dashed=0;shape=mxgraph.aws3d.redshift;fillColor=#CC0000;strokeColor=#E6E6E6;aspect=fixed;rounded=1;shadow=0;comic=0;fontSize=12" parent="1" vertex="1">
          <mxGeometry x="1148" y="-170" width="150" height="190" as="geometry" />
        </mxCell>
        <mxCell id="1a8abee3a6cfdf20-13" value="" style="verticalLabelPosition=bottom;html=1;verticalAlign=top;strokeWidth=1;dashed=0;shape=mxgraph.aws3d.simpleDb2;fillColor=#ECECEC;strokeColor=#5E5E5E;aspect=fixed;rounded=1;shadow=0;comic=0;fontSize=12" parent="1" vertex="1">
          <mxGeometry x="100" y="-130" width="181.5" height="192.6" as="geometry" />
        </mxCell>
        <mxCell id="1a8abee3a6cfdf20-15" value="" style="verticalLabelPosition=bottom;html=1;verticalAlign=top;strokeWidth=1;dashed=0;shape=mxgraph.aws3d.application_server;fillColor=#ECECEC;strokeColor=#5E5E5E;aspect=fixed;rounded=1;shadow=0;comic=0;fontSize=12" parent="1" vertex="1">
          <mxGeometry x="-5" y="1103" width="123" height="124" as="geometry" />
        </mxCell>
        <mxCell id="1a8abee3a6cfdf20-16" value="" style="verticalLabelPosition=bottom;html=1;verticalAlign=top;strokeWidth=1;dashed=0;shape=mxgraph.aws3d.application_server;fillColor=#ECECEC;strokeColor=#5E5E5E;aspect=fixed;rounded=1;shadow=0;comic=0;fontSize=12" parent="1" vertex="1">
          <mxGeometry x="349" y="860" width="123" height="124" as="geometry" />
        </mxCell>
        <mxCell id="1a8abee3a6cfdf20-17" value="" style="verticalLabelPosition=bottom;html=1;verticalAlign=top;strokeWidth=1;dashed=0;shape=mxgraph.aws3d.application_server;fillColor=#ECECEC;strokeColor=#5E5E5E;aspect=fixed;rounded=1;shadow=0;comic=0;fontSize=12" parent="1" vertex="1">
          <mxGeometry x="784.04" y="1122" width="123" height="124" as="geometry" />
        </mxCell>
        <mxCell id="1a8abee3a6cfdf20-19" value="" style="verticalLabelPosition=bottom;html=1;verticalAlign=top;strokeWidth=1;dashed=0;shape=mxgraph.aws3d.elasticBeanstalk;fillColor=#ECECEC;strokeColor=#5E5E5E;aspect=fixed;rounded=1;shadow=0;comic=0;fontSize=12" parent="1" vertex="1">
          <mxGeometry x="1538" y="2100" width="182" height="140" as="geometry" />
        </mxCell>
        <mxCell id="1a8abee3a6cfdf20-20" value="" style="verticalLabelPosition=bottom;html=1;verticalAlign=top;strokeWidth=1;dashed=0;shape=mxgraph.aws3d.simpleDb2;fillColor=#004C99;strokeColor=#99CCFF;aspect=fixed;rounded=1;shadow=0;comic=0;fontSize=12" parent="1" vertex="1">
          <mxGeometry x="1842.5" y="310.70000000000005" width="181.5" height="192.6" as="geometry" />
        </mxCell>
        <mxCell id="1a8abee3a6cfdf20-22" value="" style="verticalLabelPosition=bottom;html=1;verticalAlign=top;strokeWidth=1;dashed=0;shape=mxgraph.aws3d.dataCenter;fillColor=#ffffff;strokeColor=#5E5E5E;aspect=fixed;rounded=1;shadow=0;comic=0;fontSize=12" parent="1" vertex="1">
          <mxGeometry x="390" y="-220" width="123" height="142" as="geometry" />
        </mxCell>
        <mxCell id="1a8abee3a6cfdf20-23" value="" style="verticalLabelPosition=bottom;html=1;verticalAlign=top;strokeWidth=1;dashed=0;shape=mxgraph.aws3d.application2;fillColor=#86E83A;strokeColor=#B0F373;aspect=fixed;rounded=1;shadow=0;comic=0;fontSize=12" parent="1" vertex="1">
          <mxGeometry x="621" y="-300" width="62" height="53" as="geometry" />
        </mxCell>
        <mxCell id="1a8abee3a6cfdf20-35" value="" style="verticalLabelPosition=bottom;html=1;verticalAlign=top;strokeWidth=1;dashed=0;shape=mxgraph.aws3d.arrowSE;fillColor=#000000;aspect=fixed;rounded=1;shadow=0;comic=0;fontFamily=Verdana;fontSize=12" parent="1" vertex="1">
          <mxGeometry x="783" y="-100" width="57" height="33" as="geometry" />
        </mxCell>
        <mxCell id="d5ac148becb70bc-3" value="" style="verticalLabelPosition=bottom;html=1;verticalAlign=top;strokeWidth=1;dashed=0;shape=mxgraph.aws3d.rdsMaster;fillColor=#ECECEC;strokeColor=#5E5E5E;aspect=fixed;rounded=1;shadow=0;comic=0;fontFamily=Verdana;fontSize=12" parent="1" vertex="1">
          <mxGeometry x="469" y="389" width="123" height="133" as="geometry" />
        </mxCell>
        <mxCell id="d5ac148becb70bc-4" value="" style="verticalLabelPosition=bottom;html=1;verticalAlign=top;strokeWidth=1;dashed=0;shape=mxgraph.aws3d.arrowSW;fillColor=#000000;aspect=fixed;rounded=1;shadow=0;comic=0;fontFamily=Verdana;fontSize=12" parent="1" vertex="1">
          <mxGeometry x="1792" y="1458" width="171" height="97" as="geometry" />
        </mxCell>
        <mxCell id="d5ac148becb70bc-5" value="" style="verticalLabelPosition=bottom;html=1;verticalAlign=top;strokeWidth=1;dashed=0;shape=mxgraph.aws3d.arrowSE;fillColor=#000000;aspect=fixed;rounded=1;shadow=0;comic=0;fontFamily=Verdana;fontSize=12" parent="1" vertex="1">
          <mxGeometry x="2110" y="488" width="134" height="76" as="geometry" />
        </mxCell>
        <mxCell id="d5ac148becb70bc-14" value="" style="edgeStyle=isometricEdgeStyle;endArrow=none;html=1;labelBackgroundColor=none;strokeWidth=5;fontFamily=Verdana;fontSize=12;flowAnimation=1;" parent="1" edge="1">
          <mxGeometry width="50" height="100" relative="1" as="geometry">
            <mxPoint x="-3542" y="847.4200000000004" as="sourcePoint" />
            <mxPoint x="-2196" y="938.9999999999999" as="targetPoint" />
            <Array as="points">
              <mxPoint x="-2820" y="855.4200000000004" />
            </Array>
          </mxGeometry>
        </mxCell>
        <mxCell id="d5ac148becb70bc-16" value="" style="verticalLabelPosition=bottom;html=1;verticalAlign=top;strokeWidth=1;dashed=0;shape=mxgraph.aws3d.secureConnection;fillColor=#000000;strokeColor=#ffffff;aspect=fixed;rounded=1;shadow=0;comic=0;fontSize=12" parent="1" vertex="1">
          <mxGeometry x="1538" y="1668" width="56.99999999999999" height="34" as="geometry" />
        </mxCell>
        <mxCell id="dxz2CHpl5FGSV4LdFFIb-4" value="" style="image;points=[];aspect=fixed;html=1;align=center;shadow=0;dashed=0;image=img/lib/allied_telesis/computer_and_terminals/Smartphone.svg;" vertex="1" parent="1">
          <mxGeometry x="465" y="1312" width="93.5" height="204" as="geometry" />
        </mxCell>
        <mxCell id="dxz2CHpl5FGSV4LdFFIb-7" value="" style="image;points=[];aspect=fixed;html=1;align=center;shadow=0;dashed=0;image=img/lib/allied_telesis/buildings/Apartments.svg;imageBackground=none;" vertex="1" parent="1">
          <mxGeometry x="784.04" y="525" width="112.63" height="219" as="geometry" />
        </mxCell>
        <mxCell id="dxz2CHpl5FGSV4LdFFIb-13" value="" style="image;points=[];aspect=fixed;html=1;align=center;shadow=0;dashed=0;image=img/lib/allied_telesis/buildings/Apartments.svg;imageBackground=none;comic=0;" vertex="1" parent="1">
          <mxGeometry x="1219" y="787" width="112.63" height="219" as="geometry" />
        </mxCell>
        <mxCell id="dxz2CHpl5FGSV4LdFFIb-38" value="" style="verticalLabelPosition=bottom;html=1;verticalAlign=top;strokeWidth=1;align=center;outlineConnect=0;dashed=0;outlineConnect=0;shape=mxgraph.aws3d.snapshot;fillColor=#4286c5;strokeColor=#57A2D8;aspect=fixed;" vertex="1" parent="1">
          <mxGeometry x="1112" y="418" width="92" height="60" as="geometry" />
        </mxCell>
        <mxCell id="dxz2CHpl5FGSV4LdFFIb-45" style="edgeStyle=orthogonalEdgeStyle;rounded=0;orthogonalLoop=1;jettySize=auto;html=1;exitX=1;exitY=0.75;exitDx=0;exitDy=0;dashed=1;dashPattern=8 8;flowAnimation=0;endArrow=none;endFill=0;" edge="1" source="dxz2CHpl5FGSV4LdFFIb-46" parent="1">
          <mxGeometry relative="1" as="geometry">
            <mxPoint x="539.99" y="389" as="targetPoint" />
            <Array as="points">
              <mxPoint x="539.99" y="316" />
              <mxPoint x="539.99" y="364" />
            </Array>
          </mxGeometry>
        </mxCell>
        <mxCell id="dxz2CHpl5FGSV4LdFFIb-46" value="Customers Bank" style="whiteSpace=wrap;html=1;verticalAlign=middle;labelBackgroundColor=default;shadow=1;rounded=1;glass=0;align=center;labelPosition=center;verticalLabelPosition=middle;" vertex="1" parent="1">
          <mxGeometry x="473.9949999999999" y="254" width="120" height="60" as="geometry" />
        </mxCell>
        <mxCell id="dxz2CHpl5FGSV4LdFFIb-53" value="" style="endArrow=none;html=1;rounded=1;entryX=1.049;entryY=0.409;entryDx=0;entryDy=0;entryPerimeter=0;flowAnimation=1;endFill=0;" edge="1" parent="1" source="dxz2CHpl5FGSV4LdFFIb-38" target="dxz2CHpl5FGSV4LdFFIb-7">
          <mxGeometry relative="1" as="geometry">
            <mxPoint x="913" y="595" as="sourcePoint" />
            <mxPoint x="358" y="1011" as="targetPoint" />
          </mxGeometry>
        </mxCell>
        <mxCell id="dxz2CHpl5FGSV4LdFFIb-54" value="Topup" style="edgeLabel;resizable=0;html=1;align=center;verticalAlign=middle;" connectable="0" vertex="1" parent="dxz2CHpl5FGSV4LdFFIb-53">
          <mxGeometry relative="1" as="geometry" />
        </mxCell>
        <mxCell id="dxz2CHpl5FGSV4LdFFIb-55" value="" style="endArrow=none;html=1;rounded=0;flowAnimation=1;endFill=0;" edge="1" parent="1" source="dxz2CHpl5FGSV4LdFFIb-7" target="d5ac148becb70bc-3">
          <mxGeometry relative="1" as="geometry">
            <mxPoint x="767" y="635" as="sourcePoint" />
            <mxPoint x="563" y="523" as="targetPoint" />
          </mxGeometry>
        </mxCell>
        <mxCell id="dxz2CHpl5FGSV4LdFFIb-56" value="Customer Withdraw" style="edgeLabel;resizable=0;html=1;align=center;verticalAlign=middle;" connectable="0" vertex="1" parent="dxz2CHpl5FGSV4LdFFIb-55">
          <mxGeometry relative="1" as="geometry" />
        </mxCell>
        <mxCell id="dxz2CHpl5FGSV4LdFFIb-57" value="" style="endArrow=none;html=1;rounded=0;entryX=0.827;entryY=0.172;entryDx=0;entryDy=0;entryPerimeter=0;flowAnimation=1;endFill=0;" edge="1" parent="1" source="dxz2CHpl5FGSV4LdFFIb-7" target="1a8abee3a6cfdf20-16">
          <mxGeometry relative="1" as="geometry">
            <mxPoint x="539" y="1086" as="sourcePoint" />
            <mxPoint x="594" y="835" as="targetPoint" />
          </mxGeometry>
        </mxCell>
        <mxCell id="dxz2CHpl5FGSV4LdFFIb-58" value="Updates User Wallet" style="edgeLabel;resizable=0;html=1;align=center;verticalAlign=middle;" connectable="0" vertex="1" parent="dxz2CHpl5FGSV4LdFFIb-57">
          <mxGeometry relative="1" as="geometry" />
        </mxCell>
        <mxCell id="dxz2CHpl5FGSV4LdFFIb-68" value="" style="group" vertex="1" connectable="0" parent="1">
          <mxGeometry x="776.0049999999999" y="397" width="120" height="102" as="geometry" />
        </mxCell>
        <mxCell id="dxz2CHpl5FGSV4LdFFIb-41" style="edgeStyle=orthogonalEdgeStyle;rounded=0;orthogonalLoop=1;jettySize=auto;html=1;exitX=1;exitY=0.75;exitDx=0;exitDy=0;dashed=1;dashPattern=8 8;flowAnimation=0;endArrow=none;endFill=0;" edge="1" parent="dxz2CHpl5FGSV4LdFFIb-68">
          <mxGeometry relative="1" as="geometry">
            <mxPoint x="57.99500000000012" y="127" as="targetPoint" />
            <mxPoint x="112.00000000000023" y="37" as="sourcePoint" />
            <Array as="points">
              <mxPoint x="57.99500000000012" y="54" />
              <mxPoint x="57.99500000000012" y="102" />
            </Array>
          </mxGeometry>
        </mxCell>
        <mxCell id="dxz2CHpl5FGSV4LdFFIb-44" value="Fiat Payment&lt;br&gt;Provider" style="whiteSpace=wrap;html=1;verticalAlign=middle;labelBackgroundColor=default;shadow=1;rounded=1;glass=0;align=center;labelPosition=center;verticalLabelPosition=middle;" vertex="1" parent="dxz2CHpl5FGSV4LdFFIb-68">
          <mxGeometry width="120" height="60" as="geometry" />
        </mxCell>
        <mxCell id="dxz2CHpl5FGSV4LdFFIb-73" value="" style="endArrow=none;html=1;rounded=0;flowAnimation=1;endFill=0;shape=link;" edge="1" parent="1">
          <mxGeometry relative="1" as="geometry">
            <mxPoint x="850" y="747" as="sourcePoint" />
            <mxPoint x="847" y="1110" as="targetPoint" />
          </mxGeometry>
        </mxCell>
        <mxCell id="dxz2CHpl5FGSV4LdFFIb-74" value="Completes Billpaymentt" style="edgeLabel;resizable=0;html=1;align=center;verticalAlign=middle;" connectable="0" vertex="1" parent="dxz2CHpl5FGSV4LdFFIb-73">
          <mxGeometry relative="1" as="geometry" />
        </mxCell>
        <mxCell id="dxz2CHpl5FGSV4LdFFIb-75" value="" style="endArrow=none;html=1;rounded=0;endFill=0;flowAnimation=1;entryX=-0.011;entryY=0.329;entryDx=0;entryDy=0;entryPerimeter=0;" edge="1" parent="1" target="1a8abee3a6cfdf20-17">
          <mxGeometry relative="1" as="geometry">
            <mxPoint x="445" y="960" as="sourcePoint" />
            <mxPoint x="526.4279069767445" y="1288" as="targetPoint" />
          </mxGeometry>
        </mxCell>
        <mxCell id="dxz2CHpl5FGSV4LdFFIb-76" value="Deducts User Wallet&amp;nbsp;" style="edgeLabel;resizable=0;html=1;align=center;verticalAlign=middle;" connectable="0" vertex="1" parent="dxz2CHpl5FGSV4LdFFIb-75">
          <mxGeometry relative="1" as="geometry" />
        </mxCell>
        <mxCell id="dxz2CHpl5FGSV4LdFFIb-80" value="" style="endArrow=none;html=1;rounded=0;endFill=0;flowAnimation=1;entryX=0.187;entryY=0.846;entryDx=0;entryDy=0;entryPerimeter=0;" edge="1" parent="1" source="dxz2CHpl5FGSV4LdFFIb-4" target="1a8abee3a6cfdf20-17">
          <mxGeometry relative="1" as="geometry">
            <mxPoint x="715" y="1388" as="sourcePoint" />
            <mxPoint x="856" y="1192" as="targetPoint" />
          </mxGeometry>
        </mxCell>
        <mxCell id="dxz2CHpl5FGSV4LdFFIb-81" value="Billpayment" style="edgeLabel;resizable=0;html=1;align=center;verticalAlign=middle;" connectable="0" vertex="1" parent="dxz2CHpl5FGSV4LdFFIb-80">
          <mxGeometry relative="1" as="geometry" />
        </mxCell>
        <mxCell id="dxz2CHpl5FGSV4LdFFIb-83" value="" style="endArrow=none;html=1;rounded=0;endFill=0;flowAnimation=1;entryX=0.821;entryY=0.887;entryDx=0;entryDy=0;entryPerimeter=0;" edge="1" parent="1" target="1a8abee3a6cfdf20-15">
          <mxGeometry relative="1" as="geometry">
            <mxPoint x="465" y="1427" as="sourcePoint" />
            <mxPoint x="98" y="1234" as="targetPoint" />
          </mxGeometry>
        </mxCell>
        <mxCell id="dxz2CHpl5FGSV4LdFFIb-84" value="Shop Item" style="edgeLabel;resizable=0;html=1;align=center;verticalAlign=middle;" connectable="0" vertex="1" parent="dxz2CHpl5FGSV4LdFFIb-83">
          <mxGeometry relative="1" as="geometry" />
        </mxCell>
      </root>
    </mxGraphModel>
  </diagram>
</mxfile>
